<svg id="Layer_1" data-name="Layer 1" xmlns="http://www.w3.org/2000/svg" viewBox="0 0 1080 1080"><title>Logo</title><rect width="1080" height="1080" fill="#6f1ab6"/><path d="M822.49,409V716.65a75.83,75.83,0,0,1-75.84,75.83h0a75.83,75.83,0,0,1-75.83-75.83V550.22l-55.57,180a88.36,88.36,0,0,1-84.43,62.29h0a88.37,88.37,0,0,1-84.44-62.29l-55.57-180V716.3a76.18,76.18,0,0,1-76.18,76.18h0a76.18,76.18,0,0,1-76.18-76.18V416.51A109.92,109.92,0,0,1,348.37,306.58h0a109.93,109.93,0,0,1,103.2,72.05l80.61,219.63,80-223.77a102.38,102.38,0,0,1,96.41-67.91H720.1A102.39,102.39,0,0,1,822.49,409Z" fill="#3d1766"/><path d="M841.55,389.91V697.58a75.83,75.83,0,0,1-75.83,75.84h0a75.84,75.84,0,0,1-75.84-75.84V531.16l-55.56,180a88.38,88.38,0,0,1-84.44,62.3h0a88.38,88.38,0,0,1-84.44-62.3l-55.57-180V697.24a76.18,76.18,0,0,1-76.18,76.18h0a76.18,76.18,0,0,1-76.18-76.18V397.44A109.92,109.92,0,0,1,367.44,287.52h0a109.92,109.92,0,0,1,103.19,72.05L551.24,579.2l80-223.77a102.4,102.4,0,0,1,96.41-67.91h11.47A102.39,102.39,0,0,1,841.55,389.91Z" fill="#ececec"/></svg>