<svg xmlns="http://www.w3.org/2000/svg" viewBox="0 0 2203.51 400"><title>Logo_Momento</title><g id="Layer_2" data-name="Layer 2"><path d="M397.43,114.65V303.2a47.52,47.52,0,0,1-47.52,47.52h0A47.52,47.52,0,0,1,302.4,303.2V198.93L267.58,311.68a55.37,55.37,0,0,1-52.9,39h0a55.36,55.36,0,0,1-52.9-39L127,198.93V303a47.73,47.73,0,0,1-47.73,47.73h0A47.73,47.73,0,0,1,31.5,303V115.15a68.87,68.87,0,0,1,68.87-68.88h0A68.88,68.88,0,0,1,165,91.42L215.54,229l49.14-137.4a68.38,68.38,0,0,1,64.38-45.35h0A68.38,68.38,0,0,1,397.43,114.65Z" fill="#6f1ab6"/><path d="M489.87,338.68a110.94,110.94,0,0,1-45.79-43.22q-16.56-28.15-16.56-66t16.56-66a111,111,0,0,1,45.79-43.22q29.25-15,65.79-15t65.79,15a111,111,0,0,1,45.8,43.22q16.54,28.17,16.55,66t-16.55,66a111,111,0,0,1-45.8,43.22q-29.24,15-65.79,15.05T489.87,338.68ZM578,260.63q9-10.53,9-31.17t-9-31.18q-9-10.53-22.36-10.53T533.3,198.28q-9,10.54-9,31.18t8.82,31.17a28.09,28.09,0,0,0,22.57,10.54Q569,271.17,578,260.63Z" fill="#6f1ab6"/><path d="M1109.71,134.43q25.57,27.94,25.59,75.67v93.1a47.53,47.53,0,0,1-47.52,47.52h0a47.52,47.52,0,0,1-47.51-47.52v-81q0-15.48-9.25-24.3T1006.3,189q-15.91,0-24.94,8.81t-9,24.3v81a47.53,47.53,0,0,1-47.52,47.52h0A47.52,47.52,0,0,1,877.3,303.2v-81q0-15.48-9.25-24.3T843.33,189q-15.92,0-24.94,8.81t-9,24.3V318a32.68,32.68,0,0,1-32.68,32.68h-30.1A32.68,32.68,0,0,1,713.9,318V140.88a32.68,32.68,0,0,1,32.68-32.68h30.1a32.68,32.68,0,0,1,32.68,32.68h0a75.58,75.58,0,0,1,28.16-24.94q17.84-9.47,41.93-9.46,26.22,0,46.44,11.39a85.5,85.5,0,0,1,32.25,32,109,109,0,0,1,34-31.18,87.6,87.6,0,0,1,45.58-12.25Q1084.13,106.48,1109.71,134.43Z" fill="#6f1ab6"/><path d="M1392.45,246.23h-135.9q2.15,31.38,26.23,31.39,10.32,0,16.82-6.31a28.84,28.84,0,0,1,20.16-7.88h42.84c23.63,0,37,27.38,22.21,45.81l-.33.41a116.65,116.65,0,0,1-41.71,32.25q-25.15,11.84-55.26,11.83-36.12,0-64.28-15.05a107,107,0,0,1-43.86-43.22q-15.7-28.15-15.7-66t15.7-66a107.08,107.08,0,0,1,43.86-43.22q28.15-15,64.28-15T1351.8,120a106.8,106.8,0,0,1,43.86,42.36q15.69,27.51,15.69,64.93v.19A18.85,18.85,0,0,1,1392.45,246.23Zm-77.85-41.71q0-12-7.74-18.28T1287.51,180q-25.37,0-29.67,24.51Z" fill="#6f1ab6"/><path d="M1676.45,134.43q23.43,27.94,23.43,75.67v93.1a47.52,47.52,0,0,1-47.51,47.52h0a47.53,47.53,0,0,1-47.52-47.52v-81q0-17.21-9.24-27.31t-24.73-10.11q-15.92,0-24.94,10.11t-9,27.31V303a47.73,47.73,0,0,1-47.73,47.73h0A47.73,47.73,0,0,1,1441.45,303V145.18a37,37,0,0,1,37-37h21.5a37,37,0,0,1,37,37h0a86.09,86.09,0,0,1,29.89-27.95q18.71-10.76,44.5-10.75Q1653,106.48,1676.45,134.43Z" fill="#6f1ab6"/><path d="M1892.09,292.24v35.69a22.8,22.8,0,0,1-22.79,22.79H1856q-99.77,0-99.76-99.33V187.75h0a30.1,30.1,0,0,1-30.1-30.1V138.3a30.09,30.09,0,0,1,30.1-30.1h0V97.45a47.72,47.72,0,0,1,47.73-47.73h0a47.72,47.72,0,0,1,47.73,47.73V108.2h0a39.56,39.56,0,0,1,39.56,39.56v.43a39.56,39.56,0,0,1-39.56,39.56h0V253.1q0,8.61,4.08,12.48t13.55,3.87h0A22.79,22.79,0,0,1,1892.09,292.24Z" fill="#6f1ab6"/><path d="M1978.08,338.68a110.94,110.94,0,0,1-45.79-43.22q-16.56-28.15-16.56-66t16.56-66a111,111,0,0,1,45.79-43.22q29.25-15,65.79-15t65.79,15a111,111,0,0,1,45.8,43.22q16.54,28.17,16.55,66t-16.55,66a111,111,0,0,1-45.8,43.22q-29.23,15-65.79,15.05T1978.08,338.68Zm88.15-78.05q9-10.53,9-31.17t-9-31.18q-9-10.53-22.36-10.53t-22.36,10.53q-9,10.54-9,31.18t8.82,31.17a28.09,28.09,0,0,0,22.57,10.54Q2057.21,271.17,2066.23,260.63Z" fill="#6f1ab6"/></g></svg>